<?xml version="1.0" encoding="utf-8"?>
<!-- Generator: Adobe Illustrator 25.0.0, SVG Export Plug-In . SVG Version: 6.00 Build 0)  -->
<svg version="1.1" id="Layer_1" xmlns="http://www.w3.org/2000/svg" xmlns:xlink="http://www.w3.org/1999/xlink" x="0px" y="0px"
	 viewBox="0 0 623.38 105.17" style="enable-background:new 0 0 623.38 105.17;" xml:space="preserve">
<style type="text/css">
	.st0{fill:#2C2872;}
	.st1{fill:#EC642B;}
	.st2{display:none;fill:#2C2872;}
	.st3{fill:#FFFFFF;}
</style>
<g>
	<g>
		<path class="st0" d="M217.39,80.34l-21.12-54.82h13.12l16.07,44.34h-5.36l16.23-44.34h12.97l-21.35,54.82H217.39z"/>
		<path class="st0" d="M260.84,81.12c-3.42,0-6.5-0.87-9.24-2.6c-2.74-1.73-4.9-4.06-6.48-6.99c-1.58-2.92-2.37-6.28-2.37-10.06
			c0-3.78,0.79-7.16,2.37-10.13c1.58-2.98,3.73-5.31,6.45-6.99c2.72-1.68,5.81-2.52,9.28-2.52c2.54,0,4.83,0.49,6.87,1.48
			c2.04,0.98,3.71,2.34,5.01,4.08c1.29,1.74,2.02,3.72,2.17,5.94v16.31c-0.16,2.23-0.87,4.21-2.13,5.94
			c-1.27,1.73-2.93,3.09-4.97,4.08C265.75,80.63,263.43,81.12,260.84,81.12z M263.33,70.33c2.54,0,4.57-0.83,6.1-2.48
			c1.53-1.66,2.29-3.8,2.29-6.44c0-1.71-0.34-3.22-1.01-4.54c-0.67-1.32-1.66-2.36-2.95-3.11c-1.29-0.75-2.77-1.13-4.43-1.13
			c-1.61,0-3.04,0.38-4.31,1.13c-1.27,0.75-2.28,1.8-3.03,3.14c-0.75,1.35-1.13,2.87-1.13,4.58c0,1.71,0.37,3.24,1.13,4.58
			c0.75,1.35,1.76,2.4,3.03,3.14C260.29,69.95,261.72,70.33,263.33,70.33z M271.25,80.34V70.17l1.79-9.24l-1.79-9.08v-9.24h11.73
			v37.74H271.25z"/>
		<path class="st0" d="M291.28,80.34V23.97h11.96v56.37H291.28z M316.28,80.34V58.83c0-1.91-0.62-3.48-1.86-4.7
			c-1.24-1.22-2.8-1.82-4.66-1.82c-1.24,0-2.36,0.27-3.34,0.82c-0.98,0.54-1.76,1.31-2.33,2.29c-0.57,0.98-0.85,2.12-0.85,3.42
			l-4.58-2.25c0-2.95,0.63-5.54,1.9-7.77c1.27-2.22,3.02-3.95,5.24-5.16c2.23-1.22,4.76-1.82,7.61-1.82c2.95,0,5.54,0.61,7.77,1.82
			c2.23,1.22,3.96,2.9,5.2,5.05c1.24,2.15,1.86,4.65,1.86,7.49v24.15H316.28z"/>
		<path class="st0" d="M354.72,81.12c-3.42,0-6.5-0.87-9.24-2.6c-2.74-1.73-4.9-4.06-6.48-6.99c-1.58-2.92-2.37-6.28-2.37-10.06
			c0-3.78,0.79-7.16,2.37-10.13c1.58-2.98,3.73-5.31,6.45-6.99c2.72-1.68,5.81-2.52,9.28-2.52c2.54,0,4.83,0.49,6.87,1.48
			c2.04,0.98,3.71,2.34,5.01,4.08c1.29,1.74,2.02,3.72,2.17,5.94v16.31c-0.16,2.23-0.87,4.21-2.13,5.94
			c-1.27,1.73-2.93,3.09-4.97,4.08C359.62,80.63,357.31,81.12,354.72,81.12z M357.21,70.33c2.54,0,4.57-0.83,6.1-2.48
			c1.53-1.66,2.29-3.8,2.29-6.44c0-1.71-0.34-3.22-1.01-4.54c-0.67-1.32-1.66-2.36-2.95-3.11c-1.29-0.75-2.77-1.13-4.43-1.13
			c-1.61,0-3.04,0.38-4.31,1.13c-1.27,0.75-2.28,1.8-3.03,3.14c-0.75,1.35-1.13,2.87-1.13,4.58c0,1.71,0.37,3.24,1.13,4.58
			c0.75,1.35,1.76,2.4,3.03,3.14C354.16,69.95,355.6,70.33,357.21,70.33z M365.13,80.34V70.17l1.79-9.24l-1.79-9.08v-9.24h11.73
			v37.74H365.13z"/>
		<path class="st0" d="M385.24,80.34V42.61h11.96v37.74H385.24z M410.24,80.34V58.83c0-1.91-0.62-3.48-1.86-4.7
			c-1.24-1.22-2.8-1.82-4.66-1.82c-1.24,0-2.36,0.27-3.34,0.82c-0.98,0.54-1.76,1.31-2.33,2.29c-0.57,0.98-0.85,2.12-0.85,3.42
			l-4.58-2.25c0-2.95,0.66-5.54,1.98-7.77c1.32-2.22,3.13-3.95,5.44-5.16c2.3-1.22,4.9-1.82,7.8-1.82c2.74,0,5.2,0.65,7.38,1.94
			c2.17,1.29,3.88,3.04,5.12,5.24c1.24,2.2,1.86,4.59,1.86,7.18v24.15H410.24z"/>
		<path class="st1" d="M459.15,80.34l-17.7-54.82h12.19l12.89,42.16h-4.74l12.5-42.16h9.63l12.58,42.16h-4.74l12.89-42.16h12.11
			l-17.7,54.82h-9.55l-12.73-42.09h4.58L468.7,80.34H459.15z"/>
		<path class="st1" d="M531.37,81.12c-3.42,0-6.5-0.87-9.24-2.6c-2.74-1.73-4.9-4.06-6.48-6.99c-1.58-2.92-2.37-6.28-2.37-10.06
			c0-3.78,0.79-7.16,2.37-10.13c1.58-2.98,3.73-5.31,6.45-6.99c2.72-1.68,5.81-2.52,9.28-2.52c2.54,0,4.83,0.49,6.87,1.48
			c2.04,0.98,3.71,2.34,5.01,4.08c1.29,1.74,2.02,3.72,2.17,5.94v16.31c-0.16,2.23-0.87,4.21-2.13,5.94
			c-1.27,1.73-2.93,3.09-4.97,4.08C536.27,80.63,533.96,81.12,531.37,81.12z M533.85,70.33c2.54,0,4.57-0.83,6.1-2.48
			c1.53-1.66,2.29-3.8,2.29-6.44c0-1.71-0.34-3.22-1.01-4.54c-0.67-1.32-1.66-2.36-2.95-3.11c-1.29-0.75-2.77-1.13-4.43-1.13
			c-1.6,0-3.04,0.38-4.31,1.13c-1.27,0.75-2.28,1.8-3.03,3.14c-0.75,1.35-1.13,2.87-1.13,4.58c0,1.71,0.37,3.24,1.13,4.58
			c0.75,1.35,1.76,2.4,3.03,3.14C530.81,69.95,532.25,70.33,533.85,70.33z M541.78,80.34V70.17l1.79-9.24l-1.79-9.08v-9.24h11.73
			v37.74H541.78z"/>
		<path class="st1" d="M561.81,80.34V23.97h11.96v56.37H561.81z"/>
		<path class="st1" d="M602.73,81.2c-3.93,0-7.45-0.88-10.56-2.64c-3.11-1.76-5.57-4.14-7.38-7.14c-1.81-3-2.72-6.37-2.72-10.09
			c0-3.67,0.89-6.99,2.68-9.94c1.79-2.95,4.23-5.29,7.34-7.03c3.11-1.73,6.65-2.6,10.64-2.6c3.88,0,7.39,0.85,10.52,2.56
			c3.13,1.71,5.6,4.05,7.42,7.03c1.81,2.98,2.72,6.3,2.72,9.98c0,3.78-0.91,7.16-2.72,10.13c-1.81,2.98-4.27,5.35-7.38,7.1
			C610.18,80.32,606.66,81.2,602.73,81.2z M602.73,70.33c1.66,0,3.13-0.36,4.43-1.09c1.29-0.72,2.29-1.77,2.99-3.14
			c0.7-1.37,1.05-2.94,1.05-4.7c0-1.71-0.36-3.22-1.09-4.54c-0.73-1.32-1.72-2.36-2.99-3.11c-1.27-0.75-2.73-1.13-4.39-1.13
			c-1.66,0-3.13,0.38-4.43,1.13c-1.29,0.75-2.3,1.8-3.03,3.14c-0.73,1.35-1.09,2.85-1.09,4.5c0,1.76,0.36,3.33,1.09,4.7
			c0.72,1.37,1.73,2.42,3.03,3.14C599.6,69.96,601.07,70.33,602.73,70.33z"/>
	</g>
	<g>
		<path class="st1" d="M140.21,0h36.64l-47.18,95.52c-2.92,5.91-8.94,9.65-15.53,9.65H88.78L140.21,0z"/>
		<path class="st0" d="M126.54,0l-49.7,101.22c-1.19,2.42-3.65,3.95-6.34,3.95H53.06l-6.94-14.54L91.02,0H126.54z"/>
		<path class="st0" d="M1.22,0h36.23l26.93,54.55l-29.54-0.08c-3.98-0.01-7.63-2.23-9.46-5.76L0,0.01L1.22,0z"/>
	</g>
</g>
</svg>
