<svg width="200px" height="80px" version="1.1" id="Layer_1" xmlns="http://www.w3.org/2000/svg" xmlns:xlink="http://www.w3.org/1999/xlink" x="0px" y="0px" viewBox="0 0 130 64" style="enable-background:new 0 0 130 64;" xml:space="preserve">
	<style type="text/css">
		.st0{fill:#2C2872;}
		.st1{fill:#EC642B;}
	</style>
	<g>
		<polygon class="st0" points="7.77,22.36 20.04,22.36 17.73,27.22 20.04,30.58 24.73,22.36 34.98,22.36 34.98,18.19 7.77,18.19 	" />
		<polygon class="st1" points="8.93,25.31 13.85,25.31 20.51,36.78 26.01,27.8 30.35,27.8 27.4,33.36 30.06,36.78 37.24,25.31
		41.64,25.31 29.71,45.06 25.28,37.64 20.68,45.06 	" />
		<polygon class="st0" points="12.29,36.31 14.6,39.96 11.36,45.81 6.09,45.81 	" />
	</g>
	<g>
		<path class="st0" d="M42.47,34.95V33.2h8.46v1.75H42.47z M45.71,43.37v-9.95h1.98v9.95H45.71z" />
		<path class="st0" d="M50.66,43.37v-6.99h1.9v6.99H50.66z M52.55,39.52l-0.74-0.51c0.09-0.86,0.34-1.54,0.75-2.03
		c0.41-0.5,1.01-0.75,1.79-0.75c0.35,0,0.65,0.06,0.92,0.17c0.27,0.11,0.51,0.29,0.73,0.54l-1.19,1.37
		c-0.11-0.12-0.23-0.21-0.38-0.27s-0.32-0.08-0.51-0.08c-0.41,0-0.74,0.13-0.99,0.38C52.68,38.6,52.55,38.99,52.55,39.52z" />
		<path class="st0" d="M59.39,43.51c-0.64,0-1.21-0.16-1.71-0.48s-0.9-0.75-1.19-1.3c-0.29-0.55-0.43-1.17-0.43-1.85
		c0-0.69,0.15-1.32,0.43-1.87c0.29-0.55,0.69-0.98,1.19-1.3s1.08-0.48,1.73-0.48c0.49,0,0.94,0.1,1.33,0.3s0.71,0.48,0.95,0.84
		c0.24,0.36,0.37,0.77,0.39,1.23v2.53c-0.02,0.45-0.15,0.86-0.38,1.22c-0.24,0.36-0.55,0.64-0.95,0.85
		C60.34,43.41,59.89,43.51,59.39,43.51z M59.75,41.76c0.53,0,0.96-0.18,1.29-0.54s0.49-0.8,0.49-1.35c0-0.37-0.08-0.69-0.23-0.98
		c-0.15-0.29-0.36-0.51-0.62-0.67c-0.26-0.16-0.57-0.24-0.93-0.24c-0.35,0-0.65,0.08-0.92,0.25c-0.27,0.16-0.47,0.39-0.62,0.67
		c-0.15,0.28-0.22,0.6-0.22,0.97c0,0.38,0.07,0.7,0.22,0.98s0.36,0.5,0.63,0.67C59.11,41.68,59.42,41.76,59.75,41.76z M61.42,43.37
		v-1.88l0.32-1.71l-0.32-1.69v-1.71h1.91v6.99H61.42z" />
		<path class="st0" d="M67.25,43.37l-3.08-6.99h2.08l2.21,5.76h-1.03l2.21-5.76h2.03l-3.07,6.99H67.25z" />
		<path class="st0" d="M75.68,43.52c-0.73,0-1.39-0.16-1.96-0.48c-0.57-0.32-1.02-0.75-1.35-1.3s-0.49-1.18-0.49-1.88
		c0-0.69,0.16-1.32,0.49-1.87c0.32-0.55,0.76-0.98,1.32-1.3c0.56-0.32,1.19-0.48,1.88-0.48c0.66,0,1.24,0.15,1.76,0.45
		s0.93,0.71,1.21,1.24s0.43,1.13,0.43,1.81c0,0.12,0,0.25-0.01,0.38c-0.01,0.13-0.03,0.27-0.07,0.43L73,40.54v-1.42l5-0.01
		l-0.78,0.59c-0.01-0.42-0.08-0.76-0.22-1.04c-0.13-0.28-0.32-0.49-0.56-0.64c-0.24-0.15-0.54-0.22-0.9-0.22
		c-0.38,0-0.7,0.08-0.98,0.25c-0.28,0.16-0.49,0.4-0.64,0.7s-0.22,0.66-0.22,1.08c0,0.42,0.08,0.79,0.24,1.11s0.39,0.55,0.69,0.72
		c0.3,0.16,0.65,0.25,1.04,0.25c0.36,0,0.68-0.06,0.97-0.17c0.29-0.12,0.54-0.3,0.75-0.55l1.13,1.13c-0.36,0.4-0.78,0.71-1.26,0.91
		S76.25,43.52,75.68,43.52z" />
		<path class="st0" d="M80.16,43.37V32.91h1.89v10.46H80.16z" />
		<path class="st0" d="M86.15,43.52c-0.41,0-0.8-0.05-1.18-0.15c-0.38-0.1-0.73-0.25-1.05-0.45c-0.32-0.2-0.59-0.43-0.83-0.7
		l1.14-1.14c0.23,0.28,0.51,0.49,0.83,0.62s0.67,0.2,1.04,0.2c0.31,0,0.54-0.05,0.71-0.14c0.16-0.09,0.25-0.22,0.25-0.38
		c0-0.19-0.09-0.34-0.26-0.44s-0.39-0.19-0.66-0.27s-0.55-0.16-0.85-0.25s-0.58-0.2-0.85-0.35c-0.26-0.15-0.48-0.36-0.66-0.63
		c-0.17-0.27-0.26-0.62-0.26-1.04c0-0.44,0.11-0.83,0.33-1.17c0.22-0.33,0.54-0.59,0.94-0.77c0.41-0.18,0.88-0.27,1.43-0.27
		c0.58,0,1.1,0.1,1.57,0.3s0.86,0.5,1.17,0.9l-1.14,1.16c-0.21-0.25-0.45-0.44-0.72-0.56c-0.27-0.12-0.55-0.18-0.85-0.18
		c-0.29,0-0.51,0.04-0.65,0.13c-0.15,0.09-0.22,0.21-0.22,0.36c0,0.17,0.08,0.31,0.25,0.4s0.38,0.18,0.65,0.25
		c0.27,0.08,0.55,0.16,0.85,0.25c0.29,0.09,0.57,0.22,0.84,0.38c0.27,0.16,0.48,0.38,0.65,0.65c0.17,0.27,0.25,0.62,0.25,1.04
		c0,0.68-0.25,1.23-0.74,1.63C87.65,43.32,86.99,43.52,86.15,43.52z" />
		<path class="st1" d="M95.73,43.37l-3.3-10.17h1.97l2.45,7.83h-0.67l2.39-7.83h1.48l2.39,7.83h-0.65l2.44-7.83h1.94l-3.3,10.17
		h-1.48l-2.4-7.81h0.64l-2.4,7.81H95.73z" />
		<path class="st1" d="M109.28,43.51c-0.64,0-1.21-0.16-1.71-0.48s-0.9-0.75-1.19-1.3s-0.43-1.17-0.43-1.85
		c0-0.69,0.14-1.32,0.43-1.87s0.69-0.98,1.19-1.3s1.08-0.48,1.73-0.48c0.49,0,0.94,0.1,1.33,0.3c0.39,0.2,0.71,0.48,0.95,0.84
		c0.24,0.36,0.37,0.77,0.39,1.23v2.53c-0.02,0.45-0.15,0.86-0.38,1.22c-0.24,0.36-0.55,0.64-0.96,0.85S109.78,43.51,109.28,43.51z
		 M109.64,41.76c0.53,0,0.96-0.18,1.29-0.54c0.33-0.36,0.49-0.8,0.49-1.35c0-0.37-0.08-0.69-0.23-0.98
		c-0.15-0.29-0.36-0.51-0.62-0.67c-0.26-0.16-0.57-0.24-0.93-0.24c-0.35,0-0.65,0.08-0.92,0.25c-0.27,0.16-0.47,0.39-0.62,0.67
		c-0.15,0.28-0.22,0.6-0.22,0.97c0,0.38,0.08,0.7,0.22,0.98s0.36,0.5,0.63,0.67C109,41.68,109.3,41.76,109.64,41.76z M111.3,43.37
		v-1.88l0.32-1.71l-0.32-1.69v-1.71h1.91v6.99H111.3z" />
		<path class="st1" d="M114.86,43.37V32.91h1.89v10.46H114.86z" />
		<path class="st1" d="M121.7,43.52c-0.7,0-1.34-0.16-1.9-0.48c-0.56-0.32-1.01-0.76-1.34-1.32c-0.33-0.55-0.49-1.18-0.49-1.87
		c0-0.68,0.16-1.3,0.49-1.84c0.33-0.54,0.77-0.98,1.34-1.3c0.56-0.32,1.2-0.48,1.9-0.48c0.71,0,1.35,0.16,1.92,0.48
		s1.01,0.75,1.34,1.3c0.33,0.55,0.5,1.17,0.5,1.85s-0.16,1.31-0.49,1.87c-0.33,0.56-0.78,1-1.35,1.32
		C123.06,43.36,122.42,43.52,121.7,43.52z M121.7,41.75c0.36,0,0.67-0.08,0.95-0.25c0.27-0.16,0.49-0.38,0.64-0.67
		c0.15-0.28,0.22-0.6,0.22-0.97c0-0.37-0.08-0.69-0.24-0.97c-0.16-0.28-0.37-0.5-0.64-0.66c-0.27-0.16-0.58-0.24-0.93-0.24
		c-0.35,0-0.66,0.08-0.92,0.24c-0.27,0.16-0.48,0.38-0.63,0.66c-0.15,0.28-0.22,0.6-0.22,0.97c0,0.37,0.07,0.69,0.22,0.97
		c0.15,0.28,0.36,0.5,0.63,0.67C121.05,41.66,121.36,41.75,121.7,41.75z" />
	</g>
</svg>
